<svg width="126" height="30" viewBox="0 0 126 30" fill="none" xmlns="http://www.w3.org/2000/svg">
<path d="M115.242 26.6177L114.639 24.3823L114.966 24.2211C115.046 24.179 115.728 23.7896 115.728 22.1544C115.728 22.1544 115.734 7.94794 115.734 7.47386C115.792 6.81911 115.522 6.17826 115.015 5.76565C114.772 5.59749 114.489 5.49829 114.195 5.47841L114.843 3.14596H121.347L121.998 5.47841C121.673 5.49893 121.363 5.61837 121.107 5.8209C120.647 6.23809 120.405 6.84778 120.452 7.4705C120.452 8.09474 120.463 22.1544 120.463 22.1544C120.463 23.5885 120.983 24.0668 121.177 24.1942L121.553 24.3823L120.949 26.6177L115.242 26.6177ZM53.9057 26.6177L53.3748 24.7412L53.3017 24.3818L53.6303 24.2199L53.5939 24.2346C53.6892 24.1924 54.4011 23.8344 54.4011 22.1557V11.819L53.8405 12.7807C52.8331 14.51 51.1751 17.363 50.538 18.4583C49.9014 17.3617 46.6741 11.8148 46.6741 11.8148V22.1569C46.6741 23.8491 47.4166 24.2093 47.4738 24.2342L47.4446 24.2224L47.7999 24.3949L47.1699 26.6194H41.2856L40.7191 24.6273L40.6284 24.2506L40.9904 24.114C41.1777 24.0558 41.967 23.7183 41.967 22.1573V7.52361L41.9695 7.49914C42.1107 6.62865 41.5645 5.79502 40.7154 5.58509L40.2973 5.47965L40.9466 3.14719H46.9613C47.4065 3.99413 49.4841 7.94243 50.2713 9.43597L50.5376 9.94211L50.8031 9.43597C51.5869 7.94285 53.6633 3.99498 54.1089 3.14804H60.124L60.7749 5.4805C60.3937 5.51408 60.0298 5.65625 59.7256 5.89046C59.2709 6.28524 59.0377 6.88044 59.1019 7.48226V7.64718V22.1565C59.1019 23.8229 59.9451 24.181 60.0413 24.2144L60.425 24.359L59.785 26.6181L53.9057 26.6177ZM12.2947 27.7181C7.07677 27.7181 4.31897 23.2557 4.31897 14.8116C4.31897 2.91733 10.5895 2.31292 11.847 2.31292C12.7076 2.27994 13.5658 2.42581 14.3682 2.74145L14.4639 2.77815L14.7214 2.89372C14.9624 3.02722 15.232 3.09959 15.5069 3.10461C15.6007 3.10422 15.6944 3.09632 15.787 3.08099C16.1116 3.04213 16.4173 2.90626 16.6649 2.69084L16.682 2.67354L16.8267 2.51749L18.6058 2.59804L18.7388 10.5406H15.4287H15.0726L14.976 9.89952C14.7126 8.16601 14.4635 6.52906 12.3499 6.52906C9.80949 6.52906 9.5156 11.3201 9.5156 14.9225C9.5156 20.4386 10.3968 23.1199 12.2099 23.1199C13.8126 23.1199 14.4104 21.6483 14.5091 20.779L14.5567 20.4074H19.1087L19.0941 20.8389C18.9783 24.2587 16.6055 27.7181 12.2947 27.7181ZM64.1514 7.48185C64.216 6.88014 63.9833 6.28484 63.5289 5.88963C63.2247 5.65548 62.8608 5.51331 62.4797 5.47966L63.1306 3.14721L70.0282 3.17968C74.984 3.17968 77.9429 5.82553 77.9429 10.2576C77.9429 15.0908 75.428 17.3414 70.0282 17.3414H68.8577V22.1557C68.8577 23.8479 69.6001 24.2085 69.657 24.2329L69.6281 24.2211L69.9834 24.3932L69.3497 26.6177H63.4671L62.9333 24.7302L62.8442 24.3531L63.215 24.2122C63.3066 24.1789 64.1489 23.825 64.1489 22.1556V7.90783L64.1514 7.48185ZM68.8573 13.0072H69.5596C71.8646 13.0072 72.8926 12.1607 72.8926 10.2622C72.8926 8.49329 71.7091 7.52066 69.5596 7.52066H68.8573V13.0072ZM107.32 26.6177C106.792 25.3401 103.729 17.9243 103.425 17.1858L103.348 16.9989H102.307V22.1536C102.307 23.8407 103.023 24.1958 103.112 24.2334L103.076 24.219L103.431 24.3915L102.802 26.616H96.9163L96.3825 24.7289L96.2947 24.3493L96.663 24.2085C96.6872 24.2013 97.6002 23.8862 97.6002 22.1523V7.50969V7.4907C97.7379 6.62287 97.1923 5.79375 96.3461 5.58509L95.9281 5.47964L96.5765 3.14592L103.877 3.17924C108.649 3.17924 111.497 5.7618 111.497 10.0885C111.497 12.9351 110.525 14.9233 108.606 15.9985L108.377 16.1271L108.472 16.3738C108.853 17.365 110.693 22.1725 110.693 22.1725C111.458 24.127 112.635 24.3911 112.684 24.4012L113.102 24.4961L112.629 26.6181L107.32 26.6177ZM102.306 12.755H103.431C105.662 12.755 106.614 11.9586 106.614 10.0931C106.614 8.37392 105.485 7.42701 103.431 7.42701H102.306V12.755ZM88.4285 26.6451L87.9051 24.7893L87.8282 24.4565L88.1317 24.2928C88.4464 24.0992 88.6247 23.742 88.5915 23.3717C88.5904 23.2288 88.573 23.0866 88.5397 22.9478C88.5397 22.9478 88.056 20.7806 87.8783 19.9885L87.8253 19.7519H83.0596L83.0065 19.9881C82.8284 20.7806 82.3427 22.9499 82.3427 22.9499C82.3121 23.0884 82.2967 23.2298 82.2967 23.3717C82.2636 23.7399 82.4387 24.0956 82.7494 24.2916L83.073 24.4649L82.4547 26.6455H76.4843L76.0199 24.2144C76.6469 24.1186 77.0951 23.6564 77.3279 22.8622C77.7297 21.4905 81.4502 7.4979 81.4753 7.39836L81.4799 7.37727C81.6627 6.8756 81.5963 6.31595 81.3014 5.87193C81.1456 5.65255 80.9374 5.47642 80.6961 5.3599L81.316 3.17801H89.5689L90.1851 5.35736C89.9574 5.46094 89.7591 5.62046 89.6082 5.82132C89.2815 6.28036 89.2077 6.87519 89.4122 7.40132C89.4515 7.53502 93.07 21.4441 93.5181 22.7605C93.8898 23.8496 94.4947 24.1617 94.9006 24.2667L94.4014 26.6451H88.4285ZM84.0036 15.5813H86.8797L85.4583 9.10235L84.0036 15.5813ZM32.6021 26.6451L32.0783 24.7893L32.0018 24.4565L32.3049 24.2928C32.6196 24.0992 32.7979 23.742 32.7647 23.3717C32.7637 23.2288 32.7463 23.0866 32.7129 22.9478C32.7129 22.9478 32.2292 20.7806 32.0511 19.9885L31.9981 19.7519H27.2324L27.1793 19.9881C27.0012 20.7806 26.5155 22.9499 26.5155 22.9499C26.4851 23.0884 26.4696 23.2298 26.4695 23.3717C26.4364 23.7399 26.6114 24.0956 26.9222 24.2916L27.2458 24.4649L26.6279 26.6455H20.658L20.1935 24.2144C20.8206 24.1186 21.2687 23.6564 21.5016 22.8622C21.9033 21.4905 25.6238 7.4979 25.6489 7.39836L25.6535 7.37727C25.8365 6.87562 25.7701 6.31588 25.475 5.87193C25.3192 5.65255 25.111 5.47642 24.8697 5.3599L25.49 3.17801H33.7421L34.3579 5.35736C34.1301 5.46089 33.9318 5.62041 33.781 5.82132C33.4542 6.28032 33.3804 6.8752 33.5849 7.40132C33.6242 7.53502 37.2423 21.4441 37.6905 22.7605C38.0621 23.8496 38.667 24.1617 39.0733 24.2667L38.5746 26.6464L32.6021 26.6451ZM28.1772 15.5813H31.0533L29.632 9.10235L28.1772 15.5813ZM124.241 26.8408C124.173 26.4924 123.82 26.4473 123.524 26.4473H122.863V28.2078H123.195V27.4579H123.521L123.874 28.2078H124.243L123.854 27.4064C124.106 27.3722 124.282 27.1386 124.249 26.8846C124.247 26.8699 124.244 26.8553 124.241 26.8408ZM123.471 27.2478H123.195V26.6641H123.461C123.67 26.6641 123.897 26.6848 123.914 26.9408C123.935 27.2162 123.682 27.2478 123.469 27.2478H123.471ZM123.484 25.8028C122.634 25.804 121.946 26.4999 121.948 27.3571C121.949 28.2143 122.638 28.9083 123.488 28.9071C124.338 28.9059 125.026 28.21 125.024 27.3528C125.024 27.3361 125.024 27.3194 125.023 27.3027C124.99 26.4681 124.312 25.8077 123.484 25.8028ZM123.471 28.7009C122.732 28.6924 122.14 28.0813 122.148 27.3359C122.156 26.5906 122.762 25.9932 123.501 26.0016C124.24 26.0101 124.832 26.6212 124.823 27.3666C124.823 27.3675 124.823 27.3684 124.823 27.3693C124.807 28.1116 124.205 28.704 123.469 28.7009H123.471Z" fill="#6B7099"/>
</svg>
