<svg width="133" height="53" viewBox="0 0 133 53" fill="none" xmlns="http://www.w3.org/2000/svg">
<path d="M90.8656 8.78044C89.0568 9.73253 87.3544 11.002 86.0776 12.483C83.4176 15.3393 81.928 18.513 83.0984 19.3593C83.524 19.6766 84.4816 19.7824 86.2904 18.0898C87.9928 16.6088 89.2696 14.8104 90.1208 12.8004C91.2912 10.0499 90.8656 8.78044 90.8656 8.78044ZM105.123 13.8583C102.25 12.3772 100.122 10.5788 97.888 9.41517C95.6536 8.25149 94.4832 7.93413 92.7808 8.1457C92.568 8.1457 92.3552 8.25149 92.036 8.35728C92.036 8.35728 92.8872 11.3194 89.4824 16.2914C85.9712 21.2635 82.7792 21.3693 81.928 19.994C81.0768 18.6188 82.2472 15.5509 84.2688 12.9062C85.9712 10.8962 87.9928 9.20359 90.2272 7.82834C90.2272 7.82834 89.0568 7.08782 86.0776 8.78044C81.0768 11.8483 76.8208 15.974 73.6288 20.7345C69.0536 27.2934 68.096 30.8902 67.4576 33.6407C66.8192 36.497 67.3512 39.4591 70.5432 39.4591C73.7352 39.4591 77.3528 34.6986 78.4168 33.006C80.332 29.9381 81.6088 25.1776 78.9488 25.8124C77.672 26.1297 76.608 27.505 75.9696 28.8802C75.544 29.7265 75.2248 30.6786 75.012 31.6307C74.0544 32.0539 73.2032 32.477 72.4584 33.1118C71.6072 33.7465 70.756 34.487 70.0112 35.2275C70.224 33.1118 70.8624 31.1018 71.82 29.3034C73.0968 26.4471 75.7568 24.4371 78.8424 23.8024C80.5448 23.6966 82.7792 25.0719 80.864 30.3613C78.9488 35.6507 73.5224 42.1038 67.6704 42.1038C62.3504 42.2096 58.8392 35.4391 66.2872 23.5908C74.48 10.5788 84.056 6.55888 87.248 6.13572C90.44 5.71257 91.3976 7.08782 91.3976 7.08782C93.3128 6.3473 95.3344 6.02994 97.356 6.13572C101.186 6.3473 104.166 9.0978 108.102 11.002C107.038 11.8483 106.081 12.9062 105.123 13.8583ZM122.36 9.41517C119.7 11.1078 116.082 12.6946 112.571 12.2715C111.72 13.2235 110.762 14.2814 109.805 15.4451C115.976 16.6088 121.296 12.9062 124.169 9.62674C125.233 8.46307 126.084 7.19361 126.829 5.81836C125.339 7.2994 123.956 8.46307 122.36 9.41517ZM114.274 26.5529C114.274 26.4471 114.38 26.3413 114.38 26.3413C114.38 26.0239 114.167 25.8124 113.848 25.8124C113.21 25.8124 112.465 25.9182 110.443 28.1397C108.741 30.0439 107.251 32.1597 105.974 34.3812C104.804 36.497 104.272 38.1896 105.017 38.6128C105.23 38.7186 105.549 38.7186 105.762 38.7186C106.187 38.6128 106.719 38.1896 107.57 37.2375C107.89 36.8144 108.422 36.1796 108.847 35.5449C110.124 33.7465 113.529 27.8224 114.274 26.5529ZM92.568 29.0918C92.8872 28.1397 93.3128 26.4471 92.4616 25.7066C91.504 24.9661 88.9504 26.6587 88.9504 28.4571C89.0568 29.7265 89.908 30.8902 91.1848 31.2076C91.3976 31.3134 91.504 31.3134 91.6104 31.1018C91.9296 30.4671 92.2488 29.8323 92.568 29.0918ZM90.6528 32.477C90.0144 32.1597 89.4824 31.8423 88.9504 31.4192C88.4184 30.996 87.9928 30.4671 87.6736 29.8323C87.6736 29.7265 87.5672 29.8323 87.5672 29.8323C87.0352 30.4671 86.5032 31.2076 86.0776 31.9481C84.6944 33.9581 82.6728 37.978 84.588 38.6128C85.7584 39.0359 87.78 37.0259 88.844 35.5449C89.5888 34.5928 90.2272 33.5349 90.8656 32.477C90.7592 32.477 90.7592 32.477 90.6528 32.477ZM111.826 37.1317C111.294 37.978 110.762 39.4591 112.465 38.507C114.486 37.3433 117.466 32.9002 117.466 32.9002H118.742C117.572 34.6986 116.189 36.497 114.806 38.0838C112.784 40.3054 110.23 42.4212 108.422 42.2096C106.294 41.998 107.038 39.2475 107.038 39.2475C107.038 39.2475 104.059 42.4212 102.038 42.2096C99.2712 41.8922 100.122 38.507 100.122 38.507C100.122 38.507 96.9304 42.3154 94.8024 42.2096C91.3976 41.998 92.2488 37.978 93.2064 35.1218C93.7384 33.5349 94.164 32.3713 94.164 32.3713C94.164 32.3713 93.8448 32.477 93.1 32.5828C92.7808 32.5828 92.036 32.6886 92.036 32.6886C92.036 32.6886 90.6528 35.1217 89.4824 36.6028C88.312 38.0838 83.6304 43.1617 80.864 42.1038C78.3104 41.1517 79.1616 37.2375 80.6512 34.0639C82.8856 29.515 88.9504 22.9561 92.568 23.8024C96.0792 24.6487 92.6744 31.4192 92.6744 31.4192C92.8872 31.4192 93.1 31.4192 93.4192 31.4192C93.8448 31.3134 94.3768 31.2076 94.8024 30.996C97.0368 26.4471 99.5904 22.2156 102.57 18.1956C106.613 13.1178 114.806 4.44311 117.998 6.55888C118.742 7.08782 118.423 8.88622 117.359 11.002C116.934 11.1078 116.402 11.3194 115.87 11.4251C116.402 10.4731 116.934 9.41517 117.146 8.35728C117.572 5.71257 111.507 11.2136 107.145 17.1377C104.485 20.7345 102.144 24.4371 100.122 28.4571C100.867 28.0339 101.718 27.3992 102.357 26.8703C104.272 25.2834 106.187 23.485 107.89 21.6866C109.592 19.994 111.188 18.1956 112.678 16.2914C113.103 16.2914 113.635 16.1856 114.061 16.1856C112.465 18.3014 110.762 20.4172 108.847 22.3214C107.145 24.1198 105.23 25.9182 103.527 27.3992C102.038 28.6687 100.548 29.8323 98.952 30.7844C98.952 30.7844 95.1216 38.4012 97.1432 38.9301C98.42 39.2475 100.761 35.5449 100.761 35.5449C100.761 35.5449 103.953 30.7844 105.868 28.5629C108.422 25.6008 110.656 23.9082 112.89 23.9082C113.742 24.014 114.486 24.5429 114.912 25.2834L115.55 24.3313H119.381C119.487 24.3313 112.465 36.1796 111.826 37.1317ZM122.36 9.41517C119.7 11.1078 116.082 12.6946 112.571 12.2715C111.72 13.2235 110.762 14.2814 109.805 15.4451C115.976 16.6088 121.296 12.9062 124.169 9.62674C125.233 8.46307 126.084 7.19361 126.829 5.81836C125.339 7.2994 123.956 8.46307 122.36 9.41517ZM115.87 40.0938H116.402C116.508 40.0938 116.721 40.0938 116.827 40.0938C117.04 40.1996 117.146 40.3054 117.04 40.517C117.04 40.6227 116.934 40.7285 116.827 40.8343C116.721 40.8343 116.721 40.9401 116.614 40.9401C116.721 40.9401 116.827 41.0459 116.934 41.1517C117.04 41.2575 117.04 41.3633 117.04 41.3633V41.5748V41.6806H116.827V41.4691C116.827 41.2575 116.827 41.1517 116.721 41.0459C116.614 41.0459 116.508 40.9401 116.402 40.9401H116.189V41.5748H115.87V40.0938ZM116.827 40.517C116.827 40.4112 116.827 40.3054 116.721 40.3054C116.614 40.3054 116.508 40.1996 116.402 40.1996H116.189V40.8343H116.402C116.508 40.8343 116.614 40.8343 116.721 40.8343C116.827 40.8343 116.827 40.7285 116.827 40.517ZM117.891 40.9401C117.891 41.5748 117.466 42.2096 116.827 42.4212C116.189 42.6327 115.444 42.3154 115.125 41.6806C114.806 41.0459 114.912 40.3054 115.338 39.8822C115.976 39.3533 116.827 39.3533 117.466 39.8822C117.785 40.0938 117.891 40.517 117.891 40.9401ZM116.402 39.5649C116.082 39.5649 115.763 39.6707 115.444 39.988C115.231 40.1996 115.018 40.517 115.018 40.9401C115.018 41.2575 115.125 41.5748 115.444 41.8922C115.657 42.1038 115.976 42.3154 116.402 42.2096C116.721 42.2096 117.146 42.1038 117.359 41.8922C117.572 41.6806 117.785 41.2575 117.785 40.9401C117.785 40.6227 117.678 40.3054 117.359 39.988C117.146 39.7764 116.827 39.6707 116.402 39.5649ZM69.4792 15.3393H65.8616L63.84 18.513H67.4576L69.4792 15.3393ZM52.4552 26.5529C53.9448 24.4371 58.2008 17.2435 58.2008 17.2435C58.2008 16.9261 57.8816 16.7146 57.6688 16.7146C57.1368 16.7146 56.0728 16.9261 54.1576 19.2535C52.4552 21.2635 50.9656 23.2734 49.6888 25.6008C48.5184 27.7166 47.9864 29.3034 48.6248 29.7265C48.8376 29.8323 49.1568 29.8323 49.3696 29.8323C50.1144 29.515 50.8592 28.986 51.2848 28.3513C51.604 27.8223 52.0296 27.1876 52.4552 26.5529ZM33.1968 16.7146C32.2392 15.974 29.6856 17.6667 29.6856 19.4651C29.6856 21.2635 31.92 21.8982 32.2392 21.8982C32.3456 21.8982 32.5584 21.8982 32.5584 21.7924C32.6648 21.6866 32.8776 21.0519 33.3032 20.2056C33.7288 19.2535 34.1544 17.4551 33.1968 16.7146ZM31.8136 23.0619C31.0688 22.8503 30.4304 22.5329 29.792 22.2156C29.26 21.7924 28.728 21.2635 28.4088 20.7345C28.4088 20.6287 28.3024 20.7345 28.3024 20.7345C28.3024 20.7345 28.0896 21.0519 26.7064 23.0619C25.3232 24.9661 23.408 29.0918 25.2168 29.7265C26.3872 30.1497 28.4088 28.0339 29.4728 26.6587C30.324 25.6008 31.0688 24.4371 31.7072 23.2734C31.8136 23.0619 31.8136 23.0619 31.8136 23.0619ZM60.9672 24.2255H62.244C62.244 24.2255 55.6472 33.6407 51.9232 33.2176C49.9016 33.006 50.4336 30.4671 50.4336 30.4671C50.4336 30.4671 47.5608 33.8523 44.9008 33.2176C42.56 32.5828 44.156 28.5629 44.156 28.5629C43.8368 28.6687 38.6232 34.5928 34.8992 33.1118C31.1752 31.6307 32.984 26.6587 33.8352 25.1776C34.4736 23.9082 35.112 22.7445 35.112 22.7445C35.112 22.7445 34.4736 22.9561 34.1544 22.9561L33.1968 23.1677C33.1968 23.1677 31.388 26.1297 30.2176 27.6108C29.0472 29.0918 24.3656 34.1697 21.5992 33.1118C18.8328 32.0539 19.4712 28.2455 21.0672 25.1776C23.6208 20.0998 29.6856 13.9641 33.3032 14.9162C36.9208 15.8683 33.9416 21.7924 33.9416 21.7924C33.9416 21.7924 34.6864 21.8982 36.3888 20.7345C38.9424 19.0419 42.2408 14.3872 45.8584 14.9162C47.5608 15.1277 49.1568 16.9261 46.9224 20.2056C46.1776 21.2635 45.1136 22.2156 44.156 21.2635C43.624 20.7345 44.0496 19.6766 44.688 18.9361C45.1136 18.3014 45.8584 17.984 46.6032 18.0898C46.6032 18.0898 47.2416 16.7146 45.6456 16.7146C44.3688 16.7146 41.2832 19.5709 39.5808 22.4271C37.9848 25.0719 35.5376 29.515 37.9848 30.5728C40.2192 31.4192 44.4752 26.4471 46.4968 23.8024C48.5184 21.1577 52.9872 15.1277 56.7112 14.9162C57.5624 14.9162 58.3072 15.3393 58.7328 15.974L59.1584 15.2335H62.9888C62.9888 15.2335 55.86 27.0818 55.328 27.9281C54.9024 28.6687 54.264 30.2555 55.9664 29.3034C57.6688 28.3513 61.0736 24.2255 60.9672 24.2255ZM59.052 43.1617C56.2856 41.2575 52.8808 40.3054 49.5824 40.4112C47.7736 40.4112 45.9648 41.3633 44.9008 42.9501C43.5176 40.4112 40.6448 38.9301 36.176 38.9301C29.0472 39.0359 22.0248 42.3154 16.3856 42.3154C11.0656 42.3154 7.1288 38.9301 7.2352 33.006C7.448 22.5329 16.3856 13.1178 22.9824 8.88622C26.8128 6.45309 30.0048 5.71257 32.0264 5.92415C32.984 6.02994 33.8352 6.66467 34.3672 7.61676C34.7928 8.46307 34.7928 9.52095 34.2608 10.473C32.5584 14.2814 30.2176 13.9641 30.324 12.1657C30.4304 11.2136 30.9624 10.3673 31.7072 9.83832C32.1328 9.62674 32.5584 9.52095 33.0904 9.52095C33.4096 9.20359 33.7288 7.19361 30.9624 7.82834C28.196 8.46307 24.8976 11.2136 21.812 14.5988C18.7264 17.984 13.832 24.5429 12.5552 31.4192C12.0232 34.5928 12.3424 40.4112 19.8968 40.3054C26.2808 40.3054 35.7504 36.0738 44.4752 36.1796C47.4544 36.1796 50.4336 36.9202 53.0936 38.507C55.328 39.6707 57.3496 41.2575 59.052 43.1617Z" fill="#6B7099"/>
</svg>
