<svg width="94" height="54" viewBox="0 0 94 54" fill="none" xmlns="http://www.w3.org/2000/svg">
<g clip-path="url(#clip0_1_141)">
<path d="M22.9056 25.7989C22.3837 27.1717 21.8618 28.5446 21.3399 29.9175C22.9056 30.6611 24.4713 31.3476 25.6891 32.6061C24.9352 34.4938 24.1814 36.4387 23.3695 38.3264C22.1518 37.1823 20.76 36.1527 19.1943 35.5806C18.3245 37.8116 17.5127 40.0425 16.6428 42.2734C14.4392 42.2734 12.2357 42.2734 10.0321 42.2734C11.0179 39.6993 12.0037 37.0679 12.9895 34.4938C10.8439 34.4366 8.69834 35.5234 7.48058 37.2967C6.95868 38.0404 6.66873 38.9556 6.78471 39.8709C6.90069 41.7586 7.8865 43.5891 9.39421 44.7904C11.4238 46.4493 14.0913 47.1357 16.7008 47.3073C18.8464 47.4789 21.05 47.3073 23.0796 46.6209C24.9352 46.0489 26.6169 44.962 27.8347 43.4175C29.4004 41.4726 30.0383 38.8984 29.8643 36.3815C29.6903 34.4938 29.2264 32.6633 28.8785 30.7756C28.4726 28.659 28.1246 26.5425 28.1246 24.426C26.5009 25.2268 24.7033 25.6272 22.9056 25.7989ZM15.889 12.9281C15.3671 14.0722 15.3091 15.3878 15.889 16.4747C16.4689 17.676 17.4547 18.82 18.7304 19.3921C18.9624 18.82 19.1943 18.1908 19.4263 17.6188C19.7742 16.6463 20.2381 15.7311 20.3541 14.7014C20.4701 13.8434 20.3541 12.9281 19.7742 12.2417C19.1943 11.5552 18.1505 11.2692 17.3387 11.5552C16.6428 11.784 16.1789 12.2989 15.889 12.9281ZM17.5706 5.14844H19.0784C20.5861 5.26284 22.0938 5.66327 23.3695 6.52132C24.8772 7.49378 25.979 9.09547 26.4429 10.8688C27.0228 13.0425 26.7909 15.3878 25.979 17.4472C25.6891 18.1908 25.4571 18.9345 25.1672 19.6209C26.385 19.2777 27.6027 18.7628 28.4726 17.7904C29.4004 16.8179 29.9223 15.5595 30.2122 14.2438C32.4738 14.2438 34.6774 14.2438 36.9389 14.2438C35.7792 17.2756 34.9093 20.4789 34.9673 23.7395C34.9673 27.515 36.359 31.0616 36.765 34.837C37.0549 37.3539 36.9389 39.9281 36.2431 42.3878C35.5472 44.676 34.3294 46.7925 32.6478 48.5086C30.9661 50.2247 28.8785 51.5404 26.6169 52.3984C23.7175 53.5425 20.5861 53.9429 17.4547 53.8857C13.7434 53.8285 10.0321 52.9705 6.8427 51.0828C4.17521 49.5383 1.91364 47.0213 0.811854 44.0467C-0.347924 41.0722 -0.231946 37.64 1.1018 34.7798C2.1456 32.5489 4.05923 30.7184 6.3208 29.6315C9.10427 28.3158 12.2937 27.9726 15.3091 28.2586C15.715 27.1717 16.1789 26.0849 16.5848 24.998C14.0333 23.9111 11.7138 22.1378 10.322 19.6781C8.29242 16.0171 8.75633 10.9832 11.6558 7.8942C13.2215 6.29251 15.3671 5.32005 17.5706 5.14844Z" fill="#6B7099"/>
<path d="M33.6336 11.8984C36.9969 9.38148 38.7366 7.95139 39.8384 6.06368C41.4041 3.43232 40.4183 1.20139 38.5046 0.286138C36.649 -0.51471 34.5034 0.228934 33.6336 2.00224C32.7637 0.228934 30.6181 -0.51471 28.7625 0.286138C26.7909 1.14419 25.8631 3.37512 27.4288 6.06368C28.5305 7.95139 30.2122 9.38148 33.6336 11.8984Z" fill="#6B7099"/>
<path d="M42.6219 19.1059C42.6219 16.4174 44.7095 14.2437 47.6089 14.2437C49.2906 14.2437 50.3344 14.7013 51.3202 15.5021L49.9864 17.0466C49.2326 16.4174 48.5947 16.0742 47.4929 16.0742C45.9852 16.0742 44.7674 17.3898 44.7674 18.9915C44.7674 20.7076 45.9852 21.9661 47.6669 21.9661C48.4207 21.9661 49.1166 21.7945 49.6385 21.3941V20.0784H47.5509V18.3051H51.6681V22.3665C50.6823 23.1674 49.3486 23.8538 47.6089 23.8538C44.6515 23.9682 42.6219 21.9089 42.6219 19.1059Z" fill="#6B7099"/>
<path d="M58.2209 19.6208C58.1049 18.7055 57.583 18.0763 56.7131 18.0763C55.8433 18.0763 55.3214 18.7055 55.1474 19.6208H58.2209ZM53.1178 20.25C53.1178 18.1907 54.5676 16.4746 56.7131 16.4746C59.1487 16.4746 60.2505 18.3051 60.2505 20.3644C60.2505 20.536 60.2505 20.7077 60.2505 20.8793H55.2054C55.4374 21.7945 56.0753 22.3094 57.0031 22.3094C57.699 22.3094 58.2209 22.0805 58.7428 21.5657L59.9025 22.5954C59.2067 23.3962 58.2208 23.911 56.9451 23.911C54.6835 23.9683 53.1178 22.4238 53.1178 20.25Z" fill="#6B7099"/>
<path d="M61.7582 16.6464H63.8458V17.6761C64.3097 17.0468 64.9476 16.532 65.9914 16.532C67.5571 16.532 68.4849 17.5616 68.4849 19.1633V23.7968H66.3973V19.7926C66.3973 18.8201 65.9334 18.3625 65.1795 18.3625C64.3677 18.3625 63.9038 18.8773 63.9038 19.7926V23.7968H61.8162V16.6464" fill="#6B7099"/>
<path d="M74.9796 19.6208C74.8637 18.7055 74.3418 18.0763 73.4719 18.0763C72.6021 18.0763 72.0802 18.7055 71.9062 19.6208H74.9796ZM69.8186 20.25C69.8186 18.1907 71.2684 16.4746 73.4139 16.4746C75.8495 16.4746 76.9513 18.3051 76.9513 20.3644C76.9513 20.536 76.9513 20.7077 76.9513 20.8793H71.9062C72.1382 21.7945 72.7761 22.3094 73.7039 22.3094C74.3998 22.3094 74.9217 22.0805 75.4436 21.5657L76.6033 22.5954C75.9075 23.3962 74.9217 23.911 73.6459 23.911C71.4423 23.9683 69.8186 22.4238 69.8186 20.25Z" fill="#6B7099"/>
<path d="M78.517 16.6462H80.6046V18.0763C81.0105 17.1038 81.7064 16.4746 82.9241 16.4746V18.5911H82.8082C81.4164 18.5911 80.6046 19.392 80.6046 21.1081V23.7394H78.517V16.6462Z" fill="#6B7099"/>
<path d="M88.0851 21.2798V20.9366C87.7372 20.765 87.2733 20.6506 86.7514 20.6506C85.8816 20.6506 85.3017 20.9938 85.3017 21.623C85.3017 22.195 85.7656 22.4811 86.4035 22.4811C87.4473 22.5383 88.0851 21.9662 88.0851 21.2798ZM83.388 21.7374C83.388 20.1357 84.6058 19.4493 86.2875 19.4493C87.0413 19.4493 87.5632 19.5637 88.0851 19.7353V19.6209C88.0851 18.7628 87.5632 18.3052 86.5194 18.3052C85.7076 18.3052 85.1857 18.4768 84.4898 18.7056L83.9679 17.1611C84.7798 16.8179 85.5336 16.5891 86.8094 16.5891C87.9112 16.5891 88.723 16.8751 89.2449 17.39C89.7668 17.9048 90.0568 18.7056 90.0568 19.6781V23.8539H88.0851V23.0531C87.5632 23.6251 86.8674 23.9683 85.8816 23.9683C84.4898 23.9111 83.388 23.1675 83.388 21.7374Z" fill="#6B7099"/>
<path d="M94 14.0149H91.9124V23.7967H94V14.0149Z" fill="#6B7099"/>
<path d="M43.0278 27.3433H45.2893L47.7829 31.2903L50.2764 27.3433H52.538V36.6674H50.4504V30.5467L47.7829 34.5509H47.7249L45.1154 30.6039V36.6674H43.0278V27.3433Z" fill="#6B7099"/>
<path d="M54.6835 29.517H56.7711V36.6674H54.6835V29.517ZM54.6255 26.9429H56.7711V28.7734H54.6255V26.9429Z" fill="#6B7099"/>
<path d="M60.8884 26.9429H58.8008V36.7246H60.8884V26.9429Z" fill="#6B7099"/>
<path d="M64.9476 26.9429H62.86V36.7246H64.9476V26.9429Z" fill="#6B7099"/>
<path d="M66.2813 35.7523L67.1511 34.4366C67.963 35.0086 68.7748 35.2946 69.4127 35.2946C69.9926 35.2946 70.2825 35.0658 70.2825 34.7798C70.2825 34.3222 69.5867 34.2078 68.7748 33.979C67.731 33.6929 66.6292 33.2353 66.6292 31.8052C66.6292 30.3751 67.847 29.5171 69.2967 29.5171C70.2246 29.5171 71.2104 29.8031 72.0222 30.3179L71.2104 31.748C70.5145 31.3476 69.7606 31.0616 69.2387 31.0616C68.7168 31.0616 68.4849 31.2904 68.4849 31.5764C68.4849 31.9768 69.1808 32.1484 69.9346 32.4345C70.9784 32.7777 72.1382 33.2353 72.1382 34.551C72.1382 36.1527 70.9204 36.8391 69.3547 36.8391C68.3689 36.7819 67.2671 36.4959 66.2813 35.7523Z" fill="#6B7099"/>
</g>
<defs>
<clipPath id="clip0_1_141">
<rect width="94" height="54" fill="white"/>
</clipPath>
</defs>
</svg>
