<svg width="150" height="31" viewBox="0 0 150 31" fill="none" xmlns="http://www.w3.org/2000/svg">
<path d="M147.718 6.12342L143.201 3.40295L138.618 0.641257C135.589 -1.18613 131.803 1.10841 131.803 4.79066V5.40895C131.803 5.75244 131.972 6.06846 132.26 6.23334L134.388 7.51114C134.975 7.86837 135.707 7.41496 135.707 6.70049V5.23034C135.707 4.50213 136.451 4.04872 137.051 4.40595L141.229 6.93406L145.394 9.44844C145.995 9.80568 145.995 10.7262 145.394 11.0835L141.229 13.5978L137.051 16.126C136.451 16.4832 135.707 16.0298 135.707 15.3016V14.5734C135.707 10.8911 131.92 8.58283 128.891 10.424L124.308 13.1857L119.791 15.9061C116.749 17.7473 116.749 22.3776 119.791 24.2187L124.308 26.9392L128.891 29.7008C131.92 31.5282 135.707 29.2337 135.707 25.5514V24.9331C135.707 24.5897 135.537 24.2736 135.25 24.1088L133.121 22.831C132.534 22.4737 131.803 22.9271 131.803 23.6416V25.1118C131.803 25.84 131.059 26.2934 130.458 25.9361L126.28 23.408L122.115 20.8937C121.514 20.5364 121.514 19.6159 122.115 19.2586L126.28 16.7442L130.458 14.2161C131.059 13.8589 131.803 14.3123 131.803 15.0405V15.7687C131.803 19.451 135.589 21.7593 138.618 19.9181L143.201 17.1564L147.718 14.436C150.76 12.5811 150.76 7.96455 147.718 6.12342Z" fill="#6B7099"/>
<path d="M118.081 7.03027L107.505 30.0169H103.118L107.074 21.4295L100.846 7.03027H105.351L109.346 16.6756L113.707 7.03027H118.081Z" fill="#6B7099"/>
<path d="M12.3382 15.1917C12.3382 12.4437 10.445 10.5201 8.12099 10.5201C5.79697 10.5201 3.90382 12.4849 3.90382 15.1917C3.90382 17.8709 5.79697 19.8632 8.12099 19.8632C10.445 19.8632 12.3382 17.9396 12.3382 15.1917ZM12.3773 23.3531V21.2371C11.2284 22.7073 9.518 23.6141 7.48123 23.6141C3.22489 23.6141 0 20.028 0 15.1917C0 10.3965 3.35546 6.7417 7.57263 6.7417C9.55717 6.7417 11.2284 7.66226 12.3773 9.0912V7.03023H16.1898V23.3531H12.3773Z" fill="#6B7099"/>
<path d="M34.7297 19.7256C33.3979 19.7256 33.0193 19.2035 33.0193 17.8295V10.5887H35.4739V7.03006H33.0193V3.04553H29.1155V7.03006H24.0758V5.40877C24.0758 4.03479 24.5719 3.51268 25.9428 3.51268H26.8045V0.352539H24.9244C21.6995 0.352539 20.1719 1.46546 20.1719 4.85918V7.0438H18.0046V10.5887H20.1719V23.3529H24.0758V10.5887H29.1155V18.5852C29.1155 21.9102 30.3297 23.3529 33.4893 23.3529H35.5V19.7256H34.7297Z" fill="#6B7099"/>
<path d="M48.752 13.7216C48.4779 11.6056 46.8328 10.3278 44.9004 10.3278C42.9812 10.3278 41.3883 11.5644 40.9966 13.7216H48.752ZM40.9574 16.2634C41.2316 18.6816 42.8767 20.0556 44.9657 20.0556C46.6108 20.0556 47.8773 19.2449 48.6215 17.9397H52.6297C51.7027 21.4021 48.752 23.6142 44.8743 23.6142C40.1871 23.6142 36.897 20.1518 36.897 15.2192C36.897 10.2866 40.3699 6.72803 44.9657 6.72803C49.5876 6.72803 52.9431 10.3141 52.9431 15.2192C52.9431 15.5764 52.917 15.9337 52.8517 16.2634H40.9574Z" fill="#6B7099"/>
<path d="M77.8021 15.1917C77.8021 12.5537 75.9089 10.5202 73.5849 10.5202C71.2609 10.5202 69.3678 12.485 69.3678 15.1917C69.3678 17.871 71.2609 19.8632 73.5849 19.8632C75.9089 19.8632 77.8021 17.8435 77.8021 15.1917ZM65.5162 30.0169V7.0303H69.3286V9.14623C70.4775 7.64859 72.1879 6.72803 74.2247 6.72803C78.4157 6.72803 81.7059 10.3553 81.7059 15.1505C81.7059 19.9457 78.3505 23.6005 74.1333 23.6005C72.1748 23.6005 70.5689 22.7898 69.4461 21.4158V30.0032H65.5162V30.0169Z" fill="#6B7099"/>
<path d="M95.4541 15.1917C95.4541 12.4437 93.561 10.5201 91.237 10.5201C88.9129 10.5201 87.0198 12.4849 87.0198 15.1917C87.0198 17.8709 88.9129 19.8632 91.237 19.8632C93.561 19.8632 95.4541 17.9396 95.4541 15.1917ZM95.4933 23.3531V21.2371C94.3443 22.7073 92.634 23.6141 90.5972 23.6141C86.3409 23.6141 83.116 20.028 83.116 15.1917C83.116 10.3965 86.4714 6.7417 90.6886 6.7417C92.6731 6.7417 94.3443 7.66226 95.4933 9.0912V7.03023H99.3057V23.3531H95.4933Z" fill="#6B7099"/>
<path d="M58.6357 8.62412C58.6357 8.62412 59.6019 6.72803 61.9911 6.72803C63.0095 6.72803 63.6623 7.099 63.6623 7.099V11.2621C63.6623 11.2621 62.2262 10.3278 60.9075 10.5202C59.5888 10.7126 58.7532 11.9766 58.7532 13.6803V23.3394H54.8102V7.0303H58.6226V8.62412H58.6357Z" fill="#6B7099"/>
</svg>
