<svg width="108" height="41" viewBox="0 0 108 41" fill="none" xmlns="http://www.w3.org/2000/svg">
<path d="M4.55409 6.24137C5.46016 6.24137 6.23676 5.49894 6.23676 4.58186C6.23676 3.62109 5.46016 2.87866 4.55409 2.87866C3.64802 2.87866 2.87142 3.62106 2.87142 4.58186C2.87142 5.49894 3.64802 6.24137 4.55409 6.24137Z" fill="#6B7099"/>
<path d="M26.2996 2.87842C25.3073 2.87842 24.6168 3.57755 24.6168 4.582V16.46C24.6168 18.9929 25.6963 21.3518 27.681 22.9678C29.1912 24.2779 30.9591 24.8892 32.8146 24.8892H32.8581C33.8073 24.8892 34.4971 24.19 34.4971 23.1856C34.4971 22.2248 33.8943 21.6138 32.9019 21.6138C31.8665 21.6138 30.7446 21.1769 29.7953 20.3472C28.6304 19.3864 27.9836 17.9885 27.9836 16.4601V11.7877H31.3492C32.2553 11.7877 32.9457 11.0456 32.9457 10.1285C32.9457 9.21144 32.2553 8.51234 31.3492 8.51234H27.9836V4.58208C27.9836 3.57763 27.2932 2.8785 26.3008 2.8785L26.2996 2.87842ZM64.9582 2.87842C64.0089 2.87842 63.3179 3.57755 63.3179 4.582V16.46C63.3179 18.9929 64.3974 21.3518 66.3821 22.9678C67.8923 24.2779 69.617 24.8892 71.5157 24.8892C72.508 24.8892 73.1985 24.19 73.1985 23.1856C73.1985 22.2248 72.5511 21.6138 71.602 21.6138C70.5233 21.6138 69.4446 21.1769 68.4953 20.3472C67.3304 19.3864 66.6399 17.9885 66.6399 16.4601V11.7877H70.0054C70.9114 11.7877 71.6019 11.0893 71.6019 10.1285C71.6019 9.16776 70.9114 8.51234 70.0054 8.51234H66.6399V4.58208C66.6399 3.57763 65.9506 2.87842 64.9582 2.87842ZM92.9599 2.87842C91.9676 2.87842 91.2771 3.57755 91.2771 4.582V23.316C91.2771 24.2768 91.9676 24.9765 92.9599 24.9765C93.9092 24.9765 94.6002 24.2768 94.6002 23.316V18.7311C94.6002 18.4691 94.7292 18.251 94.9018 18.0763C95.2469 17.7269 95.8083 17.8137 96.1104 18.1193L102.322 24.4079C102.624 24.7573 103.143 24.9767 103.617 24.9767C104.61 24.9767 105.3 24.2769 105.3 23.3161C105.3 22.792 105.084 22.2691 104.696 21.876L98.2673 15.3683L103.186 11.0884C103.531 10.7827 103.746 10.2592 103.746 9.77878C103.746 8.77433 103.056 8.0752 102.063 8.0752C101.589 8.0752 101.072 8.29395 100.683 8.687L94.6002 13.9268V4.58208C94.6002 3.57763 93.9092 2.87842 92.9599 2.87842ZM4.55382 7.85746C3.56146 7.85746 2.87102 8.55525 2.87102 9.5597V20.5652C2.87102 23.0108 4.85576 24.9768 7.22882 24.9768C9.55867 24.9768 11.4997 23.1426 11.629 20.7844V15.1936C11.629 12.8354 13.1828 11.2634 15.5127 11.2634C17.7994 11.2634 19.395 12.8353 19.395 15.1936V23.2734C19.395 24.2778 20.043 24.977 21.0353 24.977C22.0277 24.977 22.7181 24.2778 22.7181 23.2734V14.9761C22.7181 10.8709 19.7411 7.9883 15.5126 7.9883C11.2412 7.9883 8.2634 10.8709 8.2634 14.9761V20.5655L8.30693 20.6098C8.26408 21.1775 7.78866 21.6142 7.27091 21.6142C6.71001 21.6142 6.27812 21.1769 6.23495 20.6528V9.56016C6.23495 8.55572 5.5458 7.85792 4.55344 7.85792L4.55382 7.85746ZM42.6076 8.07527C40.1052 8.07527 37.7757 9.21067 36.1792 11.176C33.2454 14.8444 33.7198 19.9975 37.344 23.011C38.8542 24.2338 40.753 24.9324 42.6514 24.9324C43.0829 24.9324 43.4711 24.8887 43.9025 24.845C44.2045 24.8014 44.6359 24.6713 44.9811 24.2346C45.542 23.5358 45.4563 22.4432 44.7659 21.8318C44.4639 21.6135 44.1607 21.5266 43.7724 21.5266H43.4709C43.212 21.5703 42.9527 21.614 42.6939 21.614C39.7601 21.614 37.5604 19.2996 37.5604 16.5046C37.5604 13.7095 39.803 11.3938 42.6075 11.3938C44.8511 11.3938 46.7499 12.9226 47.3971 15.0188H42.5651C41.7454 15.0188 41.0975 15.6748 41.0975 16.5045C41.0975 17.378 41.7454 18.032 42.5651 18.032H48.9512C49.6415 18.032 50.2456 17.7272 50.5476 17.3341C50.8065 17.0284 50.9354 16.5916 50.9354 16.1549C50.806 13.753 49.6848 11.5252 47.8726 9.99673C46.3625 8.73026 44.506 8.07527 42.6076 8.07527ZM81.223 8.07527C78.7637 8.07527 76.4348 9.21067 74.8383 11.176C71.8613 14.8444 72.3789 19.9975 76.0031 23.011C77.4701 24.2338 79.3676 24.9324 81.3092 24.9324C81.6975 24.9324 82.1296 24.8887 82.5179 24.845C82.8631 24.8014 83.2936 24.6713 83.6388 24.2346C84.1997 23.5358 84.0715 22.4432 83.3811 21.8318C83.1223 21.6135 82.7767 21.5266 82.4315 21.5266H82.0862C81.8705 21.5703 81.6119 21.614 81.353 21.614C78.4192 21.614 76.2182 19.2996 76.2182 16.5046C76.2182 13.7095 78.4615 11.3938 81.2229 11.3938C83.5096 11.3938 85.409 12.9226 86.0562 15.0188H81.2229C80.4031 15.0188 79.7127 15.6748 79.7127 16.5045C79.7127 17.378 80.3606 18.032 81.1804 18.032H87.6088C88.2991 18.032 88.8601 17.7272 89.2053 17.3341C89.4641 17.0284 89.5931 16.5916 89.5931 16.1549C89.4636 13.753 88.3417 11.5252 86.4865 9.99673C84.9764 8.73026 83.1646 8.07527 81.223 8.07527ZM60.47 8.38051C57.9676 8.38051 55.6381 9.5159 54.0416 11.4812C52.7903 13.0097 52.1436 14.8875 52.1436 16.8527V23.2731C52.1436 24.2775 52.8327 24.9767 53.8251 24.9767C54.8174 24.9767 55.5079 24.2775 55.5079 23.2731V16.7653C55.5079 15.6298 55.8967 14.4951 56.6302 13.6217C57.5794 12.4425 58.9599 11.7877 60.4699 11.7877H60.512C60.9004 11.7877 61.2885 11.6557 61.5905 11.3937C61.9357 11.088 62.1524 10.695 62.2387 10.3019C62.2815 9.82152 62.1515 9.38602 61.8495 9.03664C61.4181 8.51258 60.8578 8.38048 60.4696 8.38048L60.47 8.38051Z" fill="#6B7099"/>
<path d="M74.7522 36.4627V35.6329C74.7522 35.5456 74.7094 35.5019 74.6228 35.5019H73.9756C73.8893 35.5019 73.803 35.5456 73.803 35.6329V36.4627C73.803 36.55 73.8893 36.6374 73.9756 36.6374H74.6228C74.7091 36.6374 74.7522 36.55 74.7522 36.4627ZM72.0338 35.8076C71.8613 35.8513 71.5593 35.895 71.3004 35.895C70.6532 35.895 70.5238 35.4146 70.5238 34.8032V34.2354C70.5238 33.624 70.6532 33.1436 71.3004 33.1436C71.4729 33.1436 71.8181 33.1873 72.0338 33.231V35.8076ZM72.9831 36.288V31.0911C72.9831 31.0038 72.9403 30.9164 72.8536 30.9164H72.1633C72.077 30.9164 72.0338 31.0038 72.0338 31.0911V32.4013C71.7318 32.3576 71.4729 32.3576 71.3004 32.3576C70.1355 32.3576 69.5314 33.0564 69.5314 34.2355V34.8032C69.5314 35.9824 70.1355 36.6811 71.3004 36.6811C71.775 36.6811 72.3359 36.5938 72.8105 36.5065C72.9831 36.4628 72.9831 36.419 72.9831 36.288ZM68.0213 34.1482H66.4681C66.4681 33.5368 66.7701 33.1874 67.2447 33.1874C67.7193 33.1874 68.0213 33.5368 68.0213 34.1482ZM69.0137 34.6722V34.2355C69.0137 33.1437 68.3665 32.3576 67.2447 32.3576C66.1229 32.3576 65.4757 33.1001 65.4757 34.2355V34.8033C65.4757 36.2881 66.5112 36.6811 67.2447 36.6811C67.935 36.6811 68.1939 36.6375 68.7116 36.5501C68.8411 36.5501 68.8411 36.5065 68.8411 36.3754V35.8514C68.8411 35.8077 68.7983 35.764 68.7116 35.764C68.3665 35.8077 67.8919 35.8514 67.331 35.8514C66.6406 35.8514 66.4249 35.3273 66.4249 34.8906V34.847H68.8411C68.9705 34.847 69.0137 34.8033 69.0137 34.6722ZM65.2599 33.0564V32.4887C65.2599 32.4014 65.1736 32.3577 65.0873 32.3577C64.8284 32.3577 64.3969 32.445 64.0518 32.7071V32.576C64.0518 32.4887 63.9655 32.4014 63.8792 32.4014H63.2752C63.1889 32.4014 63.1025 32.4887 63.1025 32.576V36.4628C63.1025 36.5502 63.1889 36.6375 63.2752 36.6375H63.9223C64.0086 36.6375 64.0949 36.5502 64.0949 36.4628V33.4496C64.3969 33.3186 64.699 33.1876 65.0873 33.1876C65.1736 33.1876 65.2599 33.1438 65.2599 33.0564ZM62.2829 36.4628V32.576C62.2829 32.4887 62.24 32.4014 62.1535 32.4014H61.4631C61.3769 32.4014 61.3337 32.4887 61.3337 32.576V35.5458C61.118 35.6768 60.7728 35.8515 60.4708 35.8515C60.255 35.8515 60.1256 35.8079 60.0393 35.7205C59.8667 35.5895 59.8667 35.3711 59.8667 35.0217V32.5761C59.8667 32.4888 59.7804 32.4014 59.6941 32.4014H59.0469C58.9607 32.4014 58.8744 32.4888 58.8744 32.5761V35.0217C58.8744 35.6331 58.9607 36.0699 59.2627 36.3756C59.4784 36.5939 59.7804 36.6813 60.1687 36.6813C60.6434 36.6813 60.9454 36.5502 61.3337 36.2882V36.4629C61.3337 36.5502 61.3765 36.6376 61.4631 36.6376H62.1535C62.2398 36.6376 62.2829 36.5502 62.2829 36.4628ZM58.2272 35.5021C58.2272 35.1528 58.1409 34.7597 57.4937 34.3667L56.5445 33.799C56.3288 33.6679 56.2425 33.5806 56.2425 33.4933C56.2425 33.2312 56.3719 33.1439 56.7602 33.1439C57.1486 33.1439 57.7526 33.2312 57.9683 33.2312H58.0111C58.054 33.2312 58.0975 33.1876 58.0975 33.1002V32.6635C58.0975 32.5762 58.0546 32.5325 57.968 32.4888C57.6229 32.4015 57.2777 32.3578 56.6736 32.3578C55.7244 32.3578 55.2498 32.7072 55.2498 33.4933C55.2498 33.93 55.5087 34.2793 55.897 34.4977L56.8894 35.1528C57.1483 35.2838 57.2345 35.3711 57.2345 35.5022C57.2345 35.7205 57.1483 35.8952 56.7168 35.8952C56.4579 35.8952 55.8107 35.8516 55.4655 35.8079H55.4227C55.3364 35.8079 55.2932 35.8515 55.2932 35.9389V36.3756C55.2932 36.4629 55.336 36.5066 55.4227 36.5503C55.8541 36.6376 56.4582 36.6813 56.7602 36.6813C57.7525 36.6813 58.2272 36.1572 58.2272 35.5021ZM54.7323 35.5022C54.7323 35.1528 54.646 34.7597 54.042 34.3667L53.0496 33.799C52.877 33.668 52.7476 33.5806 52.7476 33.4933C52.7476 33.2313 52.9202 33.1439 53.2653 33.1439C53.6968 33.1439 54.3009 33.2313 54.5166 33.2313C54.6029 33.2313 54.646 33.1876 54.646 33.1002V32.6635C54.646 32.5762 54.6031 32.5325 54.5166 32.4889C54.1282 32.4015 53.7831 32.3578 53.179 32.3578C52.2729 32.3578 51.7983 32.7072 51.7983 33.4933C51.7983 33.93 52.0572 34.2794 52.4024 34.4977L53.4379 35.1528C53.6537 35.2838 53.7399 35.3712 53.7399 35.5022C53.7399 35.7205 53.6971 35.8952 53.2222 35.8952C53.0064 35.8952 52.3592 35.8516 51.9709 35.8079C51.8846 35.8079 51.8415 35.8515 51.8415 35.9389V36.3756C51.8415 36.463 51.8844 36.5066 51.9709 36.5503C52.4024 36.6376 53.0064 36.6813 53.3085 36.6813C54.2577 36.6813 54.7323 36.1572 54.7323 35.5022ZM49.8569 34.2357H48.5625L49.0803 32.0085C49.1231 31.9211 49.1666 31.8774 49.2097 31.8774C49.296 31.8774 49.296 31.9211 49.3391 32.0085L49.8569 34.2357ZM51.4533 36.5067V36.463L50.2452 31.7901C50.0726 31.0913 49.5549 31.004 49.2097 31.004C48.9077 31.004 48.3899 31.0914 48.1742 31.7901L46.9661 36.463V36.5067C46.9661 36.594 47.009 36.6377 47.0955 36.6377H47.8722C47.9585 36.6377 48.0016 36.5503 48.0448 36.5067L48.3899 35.0655H50.0726L50.4177 36.5067C50.4177 36.5503 50.504 36.6377 50.5472 36.6377H51.3238C51.4101 36.6377 51.4533 36.594 51.4533 36.5067ZM44.8089 36.463V35.6332C44.8089 35.5459 44.7226 35.5022 44.6363 35.5022H43.9891C43.9028 35.5022 43.8597 35.5459 43.8597 35.6332V36.463C43.8597 36.5503 43.9025 36.6377 43.9891 36.6377H44.6363C44.7226 36.6377 44.8089 36.5503 44.8089 36.463ZM43.8166 32.5325C43.8166 32.4451 43.7303 32.4015 43.6871 32.4015H42.9105C42.8242 32.4015 42.781 32.4451 42.781 32.5325L41.9612 35.7641H41.9184C41.8756 35.7641 41.8321 35.7204 41.7889 35.5894L41.0554 32.5324C41.0554 32.4888 40.9692 32.4014 40.926 32.4014H40.1494C40.0631 32.4014 40.02 32.4451 40.02 32.5324V32.5761L41.0123 36.0261C41.1849 36.5938 41.4438 36.6375 41.6595 36.6375H41.7458L41.703 36.8558C41.5735 37.2489 41.4441 37.3362 41.0989 37.3362C40.9263 37.3362 40.4948 37.2926 40.2791 37.2926C40.1928 37.2926 40.1065 37.3362 40.1065 37.4236V37.904C40.1065 37.9913 40.1928 37.9913 40.2791 38.035C40.4517 38.0786 40.7969 38.1223 41.0557 38.1223C42.0481 38.1223 42.3501 37.773 42.5659 36.9432L43.8171 32.5762V32.5325M39.8046 36.5065V36.0261C39.8046 35.9388 39.7618 35.9388 39.6752 35.9388H39.2437C38.9849 35.9388 38.9849 35.8514 38.9849 35.5021V33.1438H39.632C39.7183 33.1438 39.8046 33.1002 39.8046 33.0128V32.5761C39.8046 32.4888 39.7183 32.4014 39.632 32.4014H38.9849V31.6153C38.9849 31.5717 38.942 31.528 38.8555 31.528H38.8126L38.1223 31.659C38.0795 31.659 37.9928 31.7027 37.9928 31.79V32.4014H37.3025C37.2162 32.4014 37.1299 32.4888 37.1299 32.5761V32.8818C37.1299 32.9691 37.2162 33.0128 37.3025 33.0565L37.9928 33.1438V35.5021C37.9928 36.5065 38.338 36.6812 39.1578 36.6812C39.3304 36.6812 39.503 36.6812 39.6755 36.6376C39.7618 36.6376 39.805 36.5939 39.805 36.5066M36.6554 36.4629V32.5761C36.6554 32.4888 36.5691 32.4014 36.4828 32.4014H35.8356C35.7493 32.4014 35.6631 32.4888 35.6631 32.5761V36.4629C35.6631 36.5502 35.7493 36.6376 35.8356 36.6376H36.4828C36.5691 36.6376 36.6554 36.5502 36.6554 36.4629ZM36.6554 31.7028V31.0477C36.6554 30.9604 36.6126 30.873 36.526 30.873H35.7925C35.7062 30.873 35.6631 30.9604 35.6631 31.0477V31.7028C35.6631 31.7901 35.7059 31.8338 35.7925 31.8338H36.526C36.6122 31.8338 36.6554 31.7902 36.6554 31.7028ZM34.8001 36.4629V31.0914C34.8001 31.004 34.7573 30.9167 34.6707 30.9167H33.9804C33.8941 30.9167 33.8078 31.004 33.8078 31.0914V36.4629C33.8078 36.5502 33.8941 36.6376 33.9804 36.6376H34.6707C34.757 36.6376 34.8001 36.5502 34.8001 36.4629ZM31.9956 35.6768C31.7799 35.8078 31.521 35.8952 31.2621 35.8952C30.8738 35.8952 30.7012 35.8078 30.7012 35.4584V35.4148C30.7012 34.9781 30.8738 34.7597 31.521 34.7597H31.9956V35.6768ZM32.988 36.4629V33.7989C32.988 32.8382 32.3839 32.3578 31.3484 32.3578C30.8306 32.3578 30.3992 32.4014 30.0971 32.4888C30.0109 32.4888 29.9677 32.5324 29.9677 32.6198V33.1002C29.9677 33.2312 30.0106 33.2312 30.0971 33.2312H30.1407C30.3996 33.1875 30.8741 33.1875 31.3488 33.1875C31.7802 33.1875 31.9959 33.3186 31.9959 33.7989V34.1046H31.5213C30.227 34.1046 29.7092 34.5413 29.7092 35.4148V35.4584C29.7092 36.4629 30.3996 36.6812 31.0036 36.6812C31.3488 36.6812 31.6939 36.5502 32.039 36.3755V36.4629C32.039 36.5502 32.1254 36.6376 32.2116 36.6376H32.8157C32.902 36.6376 32.9883 36.5502 32.9883 36.4629M29.062 36.4629V32.5761C29.062 32.4887 29.0191 32.4014 28.9326 32.4014H28.2422C28.1559 32.4014 28.0696 32.4887 28.0696 32.5761V35.5458C27.897 35.6769 27.5087 35.8515 27.2498 35.8515C27.0341 35.8515 26.9047 35.8079 26.7752 35.7205C26.6458 35.5895 26.6458 35.3712 26.6458 35.0218V32.5762C26.6458 32.4888 26.5595 32.4015 26.4732 32.4015H25.7828C25.6965 32.4015 25.6534 32.4888 25.6534 32.5762V35.0218C25.6534 35.6332 25.7397 36.0699 25.9986 36.3756C26.2143 36.594 26.5595 36.6813 26.9478 36.6813C27.4224 36.6813 27.7244 36.5503 28.0696 36.2882V36.4629C28.0696 36.5503 28.1559 36.6376 28.2422 36.6376H28.9326C29.0188 36.6376 29.062 36.5502 29.062 36.4629ZM23.8412 34.3667C23.8412 35.3275 23.496 35.7642 22.7626 35.7642C22.0292 35.7642 21.684 35.3275 21.684 34.3667V33.3622C21.684 32.3578 22.0292 31.9211 22.7626 31.9211C23.496 31.9211 23.8412 32.3578 23.8412 33.3622V34.3667ZM24.8767 34.3667V33.3622C24.8767 31.7027 23.9707 31.004 22.7626 31.004C21.5545 31.004 20.6484 31.7027 20.6484 33.3622V34.3667C20.6484 35.7642 21.2957 36.4629 22.288 36.6376V36.8123C22.288 37.5984 22.7626 37.8604 23.496 37.8604C23.7118 37.8604 24.057 37.8168 24.1864 37.7731C24.3158 37.7731 24.359 37.6857 24.359 37.6421V37.1617C24.359 37.0743 24.3162 37.0307 24.1864 37.0307H23.496C23.3666 37.0307 23.2372 36.987 23.2372 36.8123V36.6376C24.2295 36.4629 24.8767 35.7642 24.8767 34.3667ZM18.1459 36.4629V31.0914C18.1459 31.0041 18.1031 30.9167 18.0165 30.9167H17.3261C17.2398 30.9167 17.1535 31.0041 17.1535 31.0914V36.4629C17.1535 36.5503 17.2398 36.6376 17.3261 36.6376H18.0165C18.1028 36.6376 18.1459 36.5503 18.1459 36.4629ZM15.3414 35.6769C15.1256 35.8079 14.8668 35.8952 14.5647 35.8952C14.2196 35.8952 14.047 35.8079 14.047 35.4585V35.4149C14.047 34.9782 14.2196 34.7598 14.8668 34.7598H15.3414V35.6769ZM16.3338 36.4629V33.799C16.3338 32.8382 15.7297 32.3578 14.6942 32.3578C14.1764 32.3578 13.7449 32.4014 13.4429 32.4888C13.3567 32.4888 13.3135 32.5325 13.3135 32.6198V33.1002C13.3135 33.2312 13.3564 33.2312 13.4429 33.2312H13.4858C13.7446 33.1876 14.2193 33.1876 14.6939 33.1876C15.1253 33.1876 15.341 33.3186 15.341 33.799V34.1047H14.8665C13.5721 34.1047 13.0543 34.5414 13.0543 35.4148V35.4585C13.0543 36.4629 13.7446 36.6813 14.3487 36.6813C14.6939 36.6813 15.039 36.5503 15.3842 36.3756V36.4629C15.3842 36.5503 15.4705 36.6376 15.5568 36.6376H16.1608C16.2471 36.6376 16.3334 36.5503 16.3334 36.4629M12.7092 36.5066V36.0262C12.7092 35.9388 12.6664 35.9388 12.5366 35.9388H12.1483C11.8894 35.9388 11.8894 35.8515 11.8894 35.5021V33.1438H12.5366C12.6229 33.1438 12.6661 33.1002 12.6661 33.0128V32.5761C12.6661 32.4887 12.6233 32.4014 12.5366 32.4014H11.8894V31.6153C11.8894 31.5717 11.8031 31.528 11.76 31.528H11.7172L11.0269 31.659C10.9406 31.659 10.8974 31.7026 10.8974 31.79V32.4014H10.2071C10.1208 32.4014 10.0345 32.4887 10.0345 32.5761V32.8818C10.0345 32.9691 10.1208 33.0128 10.2071 33.0565L10.8974 33.1438V35.5021C10.8974 36.5065 11.2426 36.6812 12.0624 36.6812C12.235 36.6812 12.4076 36.6812 12.5801 36.6376C12.6664 36.6376 12.7095 36.5939 12.7095 36.5065M8.91281 34.8034C8.91281 35.4584 8.61081 35.8515 8.09303 35.8515C7.57525 35.8515 7.31638 35.4584 7.31638 34.8034V34.2356C7.31638 33.6242 7.57525 33.1875 8.09303 33.1875C8.61081 33.1875 8.91281 33.6242 8.91281 34.2356V34.8034ZM9.86199 34.8034V34.2356C9.86199 33.1438 9.258 32.3577 8.09303 32.3577C6.92809 32.3577 6.32407 33.1438 6.32407 34.2356V34.8034C6.32407 35.8952 6.92809 36.6812 8.09303 36.6812C9.258 36.6812 9.86199 35.8952 9.86199 34.8034ZM6.62604 31.7901V31.2224C6.62604 31.135 6.53975 31.0477 6.45346 31.0477H2.82925C2.78643 31.0477 2.69978 31.135 2.69978 31.2224V31.7901C2.69978 31.8775 2.78608 31.9211 2.82925 31.9211H4.12363V36.4631C4.12363 36.5505 4.20992 36.6378 4.29621 36.6378H5.02969C5.11601 36.6378 5.15911 36.5505 5.15911 36.4631V31.9211H6.45349C6.53978 31.9211 6.62604 31.8775 6.62604 31.7901Z" fill="#6B7099"/>
</svg>
