<svg width="27" height="22" viewBox="0 0 27 22" fill="none" xmlns="http://www.w3.org/2000/svg">
<path d="M8.00001 6.01135H5.33334V14.4272C5.33334 15.7497 6.53334 16.8317 8.00001 16.8317H20V14.4272H8.00001V6.01135Z" fill="#7223D8"/>
<path d="M24 0H13.3333C11.8667 0 10.6667 1.08203 10.6667 2.40452V9.61808C10.6667 10.9406 11.8667 12.0226 13.3333 12.0226H24C25.4667 12.0226 26.6667 10.9406 26.6667 9.61808V2.40452C26.6667 1.08203 25.4667 0 24 0ZM24 9.61808H13.3333V4.80904H24V9.61808Z" fill="#7223D8"/>
<path d="M2.66667 10.8203H0V19.2361C0 20.5586 1.2 21.6407 2.66667 21.6407H14.6667V19.2361H2.66667V10.8203Z" fill="#7223D8"/>
</svg>
