<svg width="32" height="29" viewBox="0 0 32 29" fill="none" xmlns="http://www.w3.org/2000/svg">
<path d="M5.89474 15.9458C4.96842 15.9458 4.21053 16.6292 4.21053 17.4644C4.21053 18.2997 4.96842 18.9831 5.89474 18.9831C6.82105 18.9831 7.57895 18.2997 7.57895 17.4644C7.57895 16.6292 6.82105 15.9458 5.89474 15.9458ZM5.89474 22.0203C4.96842 22.0203 4.21053 22.7037 4.21053 23.539C4.21053 24.3742 4.96842 25.0576 5.89474 25.0576C6.82105 25.0576 7.57895 24.3742 7.57895 23.539C7.57895 22.7037 6.82105 22.0203 5.89474 22.0203ZM5.89474 9.87119C4.96842 9.87119 4.21053 10.5546 4.21053 11.3898C4.21053 12.2251 4.96842 12.9085 5.89474 12.9085C6.82105 12.9085 7.57895 12.2251 7.57895 11.3898C7.57895 10.5546 6.82105 9.87119 5.89474 9.87119ZM0.842105 10.6305C0.370526 10.6305 0 10.9646 0 11.3898C0 11.8151 0.370526 12.1492 0.842105 12.1492C1.31368 12.1492 1.68421 11.8151 1.68421 11.3898C1.68421 10.9646 1.31368 10.6305 0.842105 10.6305ZM5.89474 3.79661C4.96842 3.79661 4.21053 4.48 4.21053 5.31526C4.21053 6.15051 4.96842 6.8339 5.89474 6.8339C6.82105 6.8339 7.57895 6.15051 7.57895 5.31526C7.57895 4.48 6.82105 3.79661 5.89474 3.79661ZM31.1579 12.1492C31.6295 12.1492 32 11.8151 32 11.3898C32 10.9646 31.6295 10.6305 31.1579 10.6305C30.6863 10.6305 30.3158 10.9646 30.3158 11.3898C30.3158 11.8151 30.6863 12.1492 31.1579 12.1492ZM19.3684 6.8339C20.2947 6.8339 21.0526 6.15051 21.0526 5.31526C21.0526 4.48 20.2947 3.79661 19.3684 3.79661C18.4421 3.79661 17.6842 4.48 17.6842 5.31526C17.6842 6.15051 18.4421 6.8339 19.3684 6.8339ZM19.3684 1.51864C19.84 1.51864 20.2105 1.18454 20.2105 0.759322C20.2105 0.334102 19.84 0 19.3684 0C18.8968 0 18.5263 0.334102 18.5263 0.759322C18.5263 1.18454 18.8968 1.51864 19.3684 1.51864ZM0.842105 16.7051C0.370526 16.7051 0 17.0392 0 17.4644C0 17.8896 0.370526 18.2237 0.842105 18.2237C1.31368 18.2237 1.68421 17.8896 1.68421 17.4644C1.68421 17.0392 1.31368 16.7051 0.842105 16.7051ZM12.6316 27.3356C12.16 27.3356 11.7895 27.6697 11.7895 28.0949C11.7895 28.5201 12.16 28.8543 12.6316 28.8543C13.1032 28.8543 13.4737 28.5201 13.4737 28.0949C13.4737 27.6697 13.1032 27.3356 12.6316 27.3356ZM12.6316 1.51864C13.1032 1.51864 13.4737 1.18454 13.4737 0.759322C13.4737 0.334102 13.1032 0 12.6316 0C12.16 0 11.7895 0.334102 11.7895 0.759322C11.7895 1.18454 12.16 1.51864 12.6316 1.51864ZM12.6316 6.8339C13.5579 6.8339 14.3158 6.15051 14.3158 5.31526C14.3158 4.48 13.5579 3.79661 12.6316 3.79661C11.7053 3.79661 10.9474 4.48 10.9474 5.31526C10.9474 6.15051 11.7053 6.8339 12.6316 6.8339ZM12.6316 15.1864C11.2337 15.1864 10.1053 16.2039 10.1053 17.4644C10.1053 18.7249 11.2337 19.7424 12.6316 19.7424C14.0295 19.7424 15.1579 18.7249 15.1579 17.4644C15.1579 16.2039 14.0295 15.1864 12.6316 15.1864ZM26.1053 15.9458C25.1789 15.9458 24.4211 16.6292 24.4211 17.4644C24.4211 18.2997 25.1789 18.9831 26.1053 18.9831C27.0316 18.9831 27.7895 18.2997 27.7895 17.4644C27.7895 16.6292 27.0316 15.9458 26.1053 15.9458ZM26.1053 22.0203C25.1789 22.0203 24.4211 22.7037 24.4211 23.539C24.4211 24.3742 25.1789 25.0576 26.1053 25.0576C27.0316 25.0576 27.7895 24.3742 27.7895 23.539C27.7895 22.7037 27.0316 22.0203 26.1053 22.0203ZM26.1053 9.87119C25.1789 9.87119 24.4211 10.5546 24.4211 11.3898C24.4211 12.2251 25.1789 12.9085 26.1053 12.9085C27.0316 12.9085 27.7895 12.2251 27.7895 11.3898C27.7895 10.5546 27.0316 9.87119 26.1053 9.87119ZM26.1053 3.79661C25.1789 3.79661 24.4211 4.48 24.4211 5.31526C24.4211 6.15051 25.1789 6.8339 26.1053 6.8339C27.0316 6.8339 27.7895 6.15051 27.7895 5.31526C27.7895 4.48 27.0316 3.79661 26.1053 3.79661ZM31.1579 16.7051C30.6863 16.7051 30.3158 17.0392 30.3158 17.4644C30.3158 17.8896 30.6863 18.2237 31.1579 18.2237C31.6295 18.2237 32 17.8896 32 17.4644C32 17.0392 31.6295 16.7051 31.1579 16.7051ZM19.3684 22.0203C18.4421 22.0203 17.6842 22.7037 17.6842 23.539C17.6842 24.3742 18.4421 25.0576 19.3684 25.0576C20.2947 25.0576 21.0526 24.3742 21.0526 23.539C21.0526 22.7037 20.2947 22.0203 19.3684 22.0203ZM19.3684 27.3356C18.8968 27.3356 18.5263 27.6697 18.5263 28.0949C18.5263 28.5201 18.8968 28.8543 19.3684 28.8543C19.84 28.8543 20.2105 28.5201 20.2105 28.0949C20.2105 27.6697 19.84 27.3356 19.3684 27.3356ZM12.6316 9.11187C11.2337 9.11187 10.1053 10.1294 10.1053 11.3898C10.1053 12.6503 11.2337 13.6678 12.6316 13.6678C14.0295 13.6678 15.1579 12.6503 15.1579 11.3898C15.1579 10.1294 14.0295 9.11187 12.6316 9.11187ZM12.6316 22.0203C11.7053 22.0203 10.9474 22.7037 10.9474 23.539C10.9474 24.3742 11.7053 25.0576 12.6316 25.0576C13.5579 25.0576 14.3158 24.3742 14.3158 23.539C14.3158 22.7037 13.5579 22.0203 12.6316 22.0203ZM19.3684 15.1864C17.9705 15.1864 16.8421 16.2039 16.8421 17.4644C16.8421 18.7249 17.9705 19.7424 19.3684 19.7424C20.7663 19.7424 21.8947 18.7249 21.8947 17.4644C21.8947 16.2039 20.7663 15.1864 19.3684 15.1864ZM19.3684 9.11187C17.9705 9.11187 16.8421 10.1294 16.8421 11.3898C16.8421 12.6503 17.9705 13.6678 19.3684 13.6678C20.7663 13.6678 21.8947 12.6503 21.8947 11.3898C21.8947 10.1294 20.7663 9.11187 19.3684 9.11187Z" fill="#7223D8"/>
</svg>
